<svg version="1.0" xmlns="http://www.w3.org/2000/svg" width="176.000000pt" height="60.432.000000pt" viewBox="0 0 176 60.432" preserveAspectRatio="xMidYMid meet"><g transform="matrix(.1 0 0 -.1 0 194)" fill="#000000" stroke="none"><path d="M0 302.159V0h1760v604.319H0zm1750.655 -1.558V12.46H12.46v576.283h1738.195z"/><path d="M43.611 302.159V46.726h1675.894v510.867H43.611zm394.053 197.805c9.968 -9.657 10.591 -28.347 1.246 -40.184 -5.296 -6.542 -9.034 -8.099 -20.248 -8.099 -19.002 0 -26.166 7.476 -26.166 27.724 0 13.083 1.246 16.51 8.099 21.805 11.526 9.034 27.724 8.411 37.069 -1.246m1032.637 -76.942c0.312 -79.434 0.623 -84.418 5.296 -75.696 14.329 27.724 41.43 42.365 77.253 42.676 31.15 0 50.775 -6.853 71.023 -25.543 31.773 -28.97 43.922 -62.612 43.922 -121.487 0 -46.414 -6.542 -72.892 -26.166 -101.862 -20.871 -31.462 -47.349 -44.857 -89.402 -44.857 -34.577 0 -56.382 10.903 -72.892 37.069l-8.722 13.706 -0.935 -22.74 -0.935 -23.051h-43.611l-0.935 203.412 -0.623 203.101h46.726zm-1149.451 41.119v-21.805H140.177v-127.717h165.097V274.124H140.177V99.37l-22.428 0.935 -22.74 0.935 -0.935 188.46c-0.312 103.731 0 190.329 0.935 192.51 0.935 2.804 26.789 3.738 113.699 3.738h112.142zm455.419 -62.924 0.935 -85.041 95.632 -0.935 95.943 -0.623 0.623 84.729 0.935 85.041 22.74 0.935 22.428 0.935V99.37l-22.428 0.935 -22.74 0.935 -0.935 86.598 -0.623 86.287h-193.133V99.37l-22.428 0.935 -22.74 0.935 -0.935 188.46c-0.312 103.731 0 190.329 0.935 192.51q1.402 3.738 23.363 3.738h21.805zm-181.919 23.363 0.935 -38.315h58.874v-40.496h-59.186V140.177h56.071V98.747l-36.135 1.558c-38.938 1.869 -45.168 4.05 -58.563 22.428 -6.23 8.099 -6.542 13.083 -7.476 115.88l-0.935 107.158h-46.726l0.935 19.625 0.935 19.313 21.805 1.558c27.412 1.869 29.593 5.296 29.593 47.66v30.527l19.625 -0.935 19.313 -0.935zm-155.129 -181.607V99.37l-20.871 0.935 -21.182 0.935 -0.935 138.619c-0.312 76.319 0 140.488 0.935 142.669 0.935 2.492 8.411 3.738 21.805 3.738h20.248zm716.46 37.381c1.558 -114.634 1.869 -114.945 21.805 -132.078 19.625 -16.198 52.956 -18.067 80.68 -4.361 27.412 14.018 26.478 9.968 28.347 132.701l1.558 108.092h43.611V101.239h-43.611l-1.558 23.363c-1.246 18.067 -2.181 21.805 -4.361 15.887 -4.05 -11.214 -27.101 -34.888 -38.627 -39.873 -5.607 -2.181 -20.871 -4.361 -33.642 -4.361 -57.628 -0.312 -90.336 28.97 -97.812 87.844 -3.427 28.97 -4.361 196.871 -0.935 200.297 1.246 1.246 11.526 1.869 22.74 1.246l20.248 -0.935z"/><path d="M1520.453 348.262c-16.51 -3.738 -34.265 -14.329 -43.611 -26.166 -6.23 -7.788 -6.542 -11.837 -6.542 -76.63 0 -44.234 1.246 -70.712 3.427 -75.073 6.853 -13.395 19.625 -23.986 36.135 -30.216 42.676 -15.887 86.91 0.935 104.977 40.184 5.296 12.46 6.23 20.559 6.542 59.497 0 52.644 -3.115 66.662 -19.625 84.729 -19.002 21.182 -51.398 30.527 -81.303 23.674"/></g></svg>